<mxfile host="app.diagrams.net" modified="2024-01-22T08:35:25.276Z" agent="Mozilla/5.0 (Windows NT 10.0; Win64; x64) AppleWebKit/537.36 (KHTML, like Gecko) Chrome/119.0.0.0 Safari/537.36" etag="fvJBfv0yRwtO-_0TT0Sp" version="22.1.21" type="device">
  <diagram name="Trang-1" id="53XzbhnzZ6-08hPk2Z2_">
    <mxGraphModel dx="1250" dy="762" grid="1" gridSize="10" guides="1" tooltips="1" connect="1" arrows="1" fold="1" page="1" pageScale="1" pageWidth="827" pageHeight="1169" math="0" shadow="0">
      <root>
        <mxCell id="0" />
        <mxCell id="1" parent="0" />
        <mxCell id="n7nvXSKJG6sb73TUQWco-3" style="edgeStyle=orthogonalEdgeStyle;rounded=0;orthogonalLoop=1;jettySize=auto;html=1;exitX=0.5;exitY=1;exitDx=0;exitDy=0;entryX=0.5;entryY=0;entryDx=0;entryDy=0;" edge="1" parent="1" source="n7nvXSKJG6sb73TUQWco-1" target="n7nvXSKJG6sb73TUQWco-2">
          <mxGeometry relative="1" as="geometry" />
        </mxCell>
        <mxCell id="n7nvXSKJG6sb73TUQWco-1" value="&lt;font style=&quot;font-size: 14px;&quot; color=&quot;#ffffff&quot;&gt;HOME&lt;/font&gt;" style="rounded=1;whiteSpace=wrap;html=1;fillColor=#23445D;strokeColor=#23445D;" vertex="1" parent="1">
          <mxGeometry x="270" width="120" height="60" as="geometry" />
        </mxCell>
        <mxCell id="n7nvXSKJG6sb73TUQWco-5" style="edgeStyle=orthogonalEdgeStyle;rounded=0;orthogonalLoop=1;jettySize=auto;html=1;exitX=0.5;exitY=1;exitDx=0;exitDy=0;entryX=0.5;entryY=0;entryDx=0;entryDy=0;" edge="1" parent="1" source="n7nvXSKJG6sb73TUQWco-2" target="n7nvXSKJG6sb73TUQWco-4">
          <mxGeometry relative="1" as="geometry" />
        </mxCell>
        <mxCell id="n7nvXSKJG6sb73TUQWco-2" value="&lt;font style=&quot;font-size: 15px;&quot;&gt;P&lt;font style=&quot;font-size: 15px;&quot;&gt;ro&lt;/font&gt;grams&lt;/font&gt;" style="rounded=1;whiteSpace=wrap;html=1;" vertex="1" parent="1">
          <mxGeometry x="270" y="160" width="120" height="60" as="geometry" />
        </mxCell>
        <mxCell id="n7nvXSKJG6sb73TUQWco-31" style="edgeStyle=orthogonalEdgeStyle;rounded=0;orthogonalLoop=1;jettySize=auto;html=1;exitX=0;exitY=0.5;exitDx=0;exitDy=0;entryX=0.5;entryY=0;entryDx=0;entryDy=0;" edge="1" parent="1" source="n7nvXSKJG6sb73TUQWco-4" target="n7nvXSKJG6sb73TUQWco-30">
          <mxGeometry relative="1" as="geometry" />
        </mxCell>
        <mxCell id="n7nvXSKJG6sb73TUQWco-33" style="edgeStyle=orthogonalEdgeStyle;rounded=0;orthogonalLoop=1;jettySize=auto;html=1;exitX=1;exitY=0.5;exitDx=0;exitDy=0;entryX=0.5;entryY=0;entryDx=0;entryDy=0;" edge="1" parent="1" source="n7nvXSKJG6sb73TUQWco-4" target="n7nvXSKJG6sb73TUQWco-32">
          <mxGeometry relative="1" as="geometry" />
        </mxCell>
        <mxCell id="n7nvXSKJG6sb73TUQWco-4" value="&lt;span style=&quot;font-size: 14px;&quot;&gt;Tickets&lt;/span&gt;" style="rounded=1;whiteSpace=wrap;html=1;fillColor=#dae8fc;strokeColor=#6c8ebf;" vertex="1" parent="1">
          <mxGeometry x="270" y="310" width="120" height="60" as="geometry" />
        </mxCell>
        <mxCell id="n7nvXSKJG6sb73TUQWco-24" style="edgeStyle=orthogonalEdgeStyle;rounded=0;orthogonalLoop=1;jettySize=auto;html=1;exitX=0.5;exitY=1;exitDx=0;exitDy=0;entryX=0.5;entryY=0;entryDx=0;entryDy=0;" edge="1" parent="1" source="n7nvXSKJG6sb73TUQWco-18" target="n7nvXSKJG6sb73TUQWco-22">
          <mxGeometry relative="1" as="geometry" />
        </mxCell>
        <mxCell id="n7nvXSKJG6sb73TUQWco-18" value="&lt;font style=&quot;font-size: 14px;&quot;&gt;Buy tickets&lt;/font&gt;" style="rounded=1;whiteSpace=wrap;html=1;" vertex="1" parent="1">
          <mxGeometry x="280" y="490" width="120" height="60" as="geometry" />
        </mxCell>
        <mxCell id="n7nvXSKJG6sb73TUQWco-22" value="&lt;font style=&quot;font-size: 14px;&quot;&gt;End&lt;/font&gt;" style="rounded=1;whiteSpace=wrap;html=1;" vertex="1" parent="1">
          <mxGeometry x="280" y="630" width="120" height="60" as="geometry" />
        </mxCell>
        <mxCell id="n7nvXSKJG6sb73TUQWco-34" style="edgeStyle=orthogonalEdgeStyle;rounded=0;orthogonalLoop=1;jettySize=auto;html=1;exitX=0.5;exitY=1;exitDx=0;exitDy=0;entryX=0;entryY=0.5;entryDx=0;entryDy=0;" edge="1" parent="1" source="n7nvXSKJG6sb73TUQWco-30" target="n7nvXSKJG6sb73TUQWco-18">
          <mxGeometry relative="1" as="geometry" />
        </mxCell>
        <mxCell id="n7nvXSKJG6sb73TUQWco-30" value="&lt;font style=&quot;font-size: 14px;&quot;&gt;Date&lt;/font&gt;" style="rounded=1;whiteSpace=wrap;html=1;" vertex="1" parent="1">
          <mxGeometry x="10" y="420" width="120" height="60" as="geometry" />
        </mxCell>
        <mxCell id="n7nvXSKJG6sb73TUQWco-35" style="edgeStyle=orthogonalEdgeStyle;rounded=0;orthogonalLoop=1;jettySize=auto;html=1;exitX=0.5;exitY=1;exitDx=0;exitDy=0;entryX=1;entryY=0.5;entryDx=0;entryDy=0;" edge="1" parent="1" source="n7nvXSKJG6sb73TUQWco-32" target="n7nvXSKJG6sb73TUQWco-18">
          <mxGeometry relative="1" as="geometry" />
        </mxCell>
        <mxCell id="n7nvXSKJG6sb73TUQWco-32" value="&lt;font style=&quot;font-size: 14px;&quot;&gt;Select ticket type&lt;/font&gt;" style="rounded=1;whiteSpace=wrap;html=1;" vertex="1" parent="1">
          <mxGeometry x="560" y="420" width="120" height="60" as="geometry" />
        </mxCell>
      </root>
    </mxGraphModel>
  </diagram>
</mxfile>
